<svg width="24" height="24" viewBox="0 0 24 24" fill="none" xmlns="http://www.w3.org/2000/svg">
<rect width="24" height="24" fill="black"/>
<path d="M14.3327 16.3334C12.6594 16.3334 11.2127 15.3867 10.4927 14H14.3327L14.9994 12.6667H10.0527C10.0194 12.4467 9.99936 12.2267 9.99936 12C9.99936 11.7733 10.0194 11.5533 10.0527 11.3333H14.3327L14.9994 10H10.4927C11.2127 8.61334 12.666 7.66667 14.3327 7.66667C15.406 7.66667 16.3927 8.06001 17.1527 8.71334L18.3327 7.53334C17.2727 6.58 15.866 6 14.3327 6C11.7194 6 9.50603 7.67334 8.67936 10H6.33268L5.66602 11.3333H8.37269C8.34602 11.5533 8.33269 11.7733 8.33269 12C8.33269 12.2267 8.34602 12.4467 8.37269 12.6667H6.33268L5.66602 14H8.67936C9.50603 16.3267 11.7194 18 14.3327 18C15.8727 18 17.2727 17.42 18.3327 16.4667L17.146 15.2867C16.3927 15.94 15.4127 16.3334 14.3327 16.3334Z" fill="white"/>
</svg>
